<svg width="25" height="25" viewBox="0 0 25 25" fill="none" xmlns="http://www.w3.org/2000/svg">
<path d="M6.14138 0.252197C5.8765 0.256338 5.62409 0.365398 5.43954 0.555442C5.25499 0.745485 5.15338 1.00099 5.157 1.26587V5.26587H1.157C1.02449 5.264 0.892929 5.28848 0.769961 5.33789C0.646992 5.3873 0.535071 5.46066 0.440701 5.55371C0.346332 5.64675 0.271396 5.75763 0.220248 5.87988C0.1691 6.00214 0.142761 6.13334 0.142761 6.26587C0.142761 6.39839 0.1691 6.5296 0.220248 6.65186C0.271396 6.77411 0.346332 6.88498 0.440701 6.97803C0.535071 7.07107 0.646992 7.14443 0.769961 7.19385C0.892929 7.24326 1.02449 7.26774 1.157 7.26587H3.78591C3.67199 7.45702 3.62508 7.68071 3.6526 7.90153C3.68012 8.12235 3.7805 8.32768 3.93785 8.48503C4.09519 8.64238 4.30053 8.74275 4.52134 8.77027C4.74216 8.79779 4.96585 8.75088 5.157 8.63696V17.2659H1.157C1.02449 17.264 0.892929 17.2885 0.769961 17.3379C0.646992 17.3873 0.535071 17.4607 0.440701 17.5537C0.346332 17.6468 0.271396 17.7576 0.220248 17.8799C0.1691 18.0021 0.142761 18.1333 0.142761 18.2659C0.142761 18.3984 0.1691 18.5296 0.220248 18.6519C0.271396 18.7741 0.346332 18.885 0.440701 18.978C0.535071 19.0711 0.646992 19.1444 0.769961 19.1938C0.892929 19.2433 1.02449 19.2677 1.157 19.2659H3.78591C3.67199 19.457 3.62508 19.6807 3.6526 19.9015C3.68012 20.1223 3.7805 20.3277 3.93785 20.485C4.09519 20.6424 4.30053 20.7428 4.52134 20.7703C4.74216 20.7978 4.96585 20.7509 5.157 20.637V23.2659C5.15513 23.3984 5.17961 23.5299 5.22902 23.6529C5.27844 23.7759 5.3518 23.8878 5.44484 23.9822C5.53789 24.0765 5.64876 24.1515 5.77102 24.2026C5.89327 24.2538 6.02448 24.2801 6.157 24.2801C6.28953 24.2801 6.42073 24.2538 6.54299 24.2026C6.66525 24.1515 6.77612 24.0765 6.86916 23.9822C6.96221 23.8878 7.03557 23.7759 7.08498 23.6529C7.1344 23.5299 7.15888 23.3984 7.157 23.2659V19.2659H15.7859C15.672 19.457 15.6251 19.6807 15.6526 19.9015C15.6801 20.1223 15.7805 20.3277 15.9378 20.485C16.0952 20.6424 16.3005 20.7428 16.5213 20.7703C16.7422 20.7978 16.9658 20.7509 17.157 20.637V23.2659C17.1551 23.3984 17.1796 23.5299 17.229 23.6529C17.2784 23.7759 17.3518 23.8878 17.4448 23.9822C17.5379 24.0765 17.6488 24.1515 17.771 24.2026C17.8933 24.2538 18.0245 24.2801 18.157 24.2801C18.2895 24.2801 18.4207 24.2538 18.543 24.2026C18.6652 24.1515 18.7761 24.0765 18.8692 23.9822C18.9622 23.8878 19.0356 23.7759 19.085 23.6529C19.1344 23.5299 19.1589 23.3984 19.157 23.2659V19.2659H23.157C23.2895 19.2677 23.4211 19.2433 23.544 19.1938C23.667 19.1444 23.7789 19.0711 23.8733 18.978C23.9677 18.885 24.0426 18.7741 24.0938 18.6519C24.1449 18.5296 24.1712 18.3984 24.1712 18.2659C24.1712 18.1333 24.1449 18.0021 24.0938 17.8799C24.0426 17.7576 23.9677 17.6468 23.8733 17.5537C23.7789 17.4607 23.667 17.3873 23.544 17.3379C23.4211 17.2885 23.2895 17.264 23.157 17.2659H20.5261C20.6174 17.1119 20.6657 16.9363 20.666 16.7574C20.6663 16.5784 20.6185 16.4027 20.5278 16.2485C20.437 16.0943 20.3065 15.9672 20.1499 15.8806C19.9933 15.794 19.8163 15.751 19.6375 15.7561C19.4682 15.7609 19.3028 15.8086 19.157 15.8948V7.26587H23.157C23.2895 7.26774 23.4211 7.24326 23.544 7.19385C23.667 7.14443 23.7789 7.07107 23.8733 6.97803C23.9677 6.88498 24.0426 6.77411 24.0938 6.65186C24.1449 6.5296 24.1712 6.39839 24.1712 6.26587C24.1712 6.13334 24.1449 6.00214 24.0938 5.87988C24.0426 5.75763 23.9677 5.64675 23.8733 5.55371C23.7789 5.46066 23.667 5.3873 23.544 5.33789C23.4211 5.28848 23.2895 5.264 23.157 5.26587H20.5261C20.6174 5.11194 20.6657 4.93635 20.666 4.7574C20.6663 4.57845 20.6185 4.4027 20.5278 4.24849C20.437 4.09427 20.3065 3.96723 20.1499 3.88063C19.9933 3.79402 19.8163 3.75102 19.6375 3.7561C19.4682 3.76089 19.3028 3.80861 19.157 3.89478V1.26587C19.1588 1.13208 19.1338 0.999283 19.0834 0.875342C19.033 0.751402 18.9582 0.638839 18.8635 0.544317C18.7688 0.449796 18.6561 0.375239 18.532 0.325062C18.408 0.274885 18.2752 0.250108 18.1414 0.252197C17.8765 0.256338 17.6241 0.365398 17.4395 0.555442C17.255 0.745485 17.1534 1.00099 17.157 1.26587V5.26587H8.52614C8.61741 5.11194 8.66571 4.93635 8.66599 4.7574C8.66628 4.57845 8.61855 4.4027 8.52777 4.24849C8.437 4.09427 8.30651 3.96723 8.14991 3.88063C7.99331 3.79402 7.81635 3.75102 7.63747 3.7561C7.46816 3.76089 7.30283 3.80861 7.157 3.89478V1.26587C7.15884 1.13208 7.1338 0.999283 7.08339 0.875342C7.03297 0.751402 6.9582 0.638839 6.86349 0.544317C6.76879 0.449796 6.65608 0.375239 6.53205 0.325062C6.40801 0.274885 6.27516 0.250108 6.14138 0.252197ZM7.157 7.26587H15.7879C15.6746 7.45685 15.6281 7.6801 15.6557 7.90042C15.6833 8.12074 15.7835 8.32561 15.9404 8.48273C16.0973 8.63985 16.302 8.74029 16.5223 8.76822C16.7425 8.79614 16.9659 8.74996 17.157 8.63696V17.2659H8.52614C8.61741 17.1119 8.66571 16.9363 8.66599 16.7574C8.66628 16.5784 8.61855 16.4027 8.52777 16.2485C8.437 16.0943 8.30651 15.9672 8.14991 15.8806C7.99331 15.794 7.81635 15.751 7.63747 15.7561C7.46816 15.7609 7.30283 15.8086 7.157 15.8948V7.26587Z" fill="black"/>
</svg>
